<?xml version="1.0" standalone="no"?>
<!DOCTYPE svg PUBLIC "-//W3C//DTD SVG 20010904//EN"
 "http://www.w3.org/TR/2001/REC-SVG-20010904/DTD/svg10.dtd">
<svg version="1.0" xmlns="http://www.w3.org/2000/svg"
 width="487.000000pt" height="144.000000pt" viewBox="0 0 487.000000 144.000000"
 preserveAspectRatio="xMidYMid meet">

<g transform="translate(0.000000,144.000000) scale(0.100000,-0.100000)"
fill="#000000" stroke="none">
<path d="M3964 1201 c-65 -28 -84 -113 -35 -162 91 -91 230 36 144 131 -30 32
-75 45 -109 31z"/>
<path d="M253 781 c-123 -220 -223 -402 -223 -405 0 -6 119 60 147 82 12 9 85
132 162 272 l142 254 -3 99 -3 99 -222 -401z"/>
<path d="M500 1079 l0 -107 142 -255 141 -255 80 -46 c44 -26 81 -45 83 -43 2
2 -80 154 -183 338 -102 183 -203 366 -224 404 l-39 70 0 -106z"/>
<path d="M1342 956 c-24 -8 -52 -22 -63 -32 -18 -16 -19 -16 -19 4 0 21 -5 22
-90 22 l-90 0 0 -350 0 -350 90 0 90 0 0 132 c0 128 0 131 19 114 29 -27 110
-48 156 -40 70 11 120 47 151 110 23 48 27 68 27 144 0 76 -4 96 -27 144 -45
91 -146 133 -244 102z m68 -152 c22 -21 25 -33 25 -93 0 -55 -4 -73 -20 -91
-33 -37 -64 -43 -112 -25 l-43 17 0 98 0 98 38 16 c45 19 79 13 112 -20z"/>
<path d="M1855 961 c-90 -22 -140 -80 -158 -184 -28 -166 42 -289 178 -311 46
-8 126 13 157 41 21 18 21 18 16 -40 -6 -74 -28 -98 -95 -104 -40 -4 -54 0
-86 21 l-38 26 -54 -37 c-30 -19 -55 -39 -55 -42 0 -9 61 -48 105 -67 52 -23
204 -24 256 -2 53 23 105 73 125 121 16 36 19 79 22 310 l4 267 -91 0 -91 0 0
-27 c0 -25 -1 -25 -19 -9 -20 18 -103 47 -130 45 -9 -1 -29 -4 -46 -8z m155
-137 l40 -16 0 -93 0 -93 -41 -16 c-81 -33 -139 13 -139 108 0 60 18 96 55
112 38 17 37 17 85 -2z"/>
<path d="M2514 960 c-50 -7 -140 -45 -151 -63 -3 -5 12 -27 34 -49 39 -38 41
-39 64 -25 37 24 95 31 130 17 36 -15 49 -37 49 -84 l0 -35 -37 22 c-51 30
-153 31 -203 2 -70 -42 -96 -143 -54 -215 42 -72 177 -100 258 -52 35 21 36
21 36 2 0 -18 7 -20 85 -20 l85 0 0 178 c0 188 -10 232 -56 274 -47 42 -147
62 -240 48z m101 -312 c18 -8 25 -19 25 -38 0 -19 -7 -30 -25 -38 -40 -18 -92
-15 -115 8 -24 24 -24 29 -4 58 17 25 75 30 119 10z"/>
<path d="M3202 960 c-19 -4 -47 -20 -63 -36 l-29 -28 0 32 0 32 -90 0 -90 0 0
-250 0 -250 90 0 90 0 0 159 0 160 28 19 c32 23 108 46 128 38 11 -4 14 9 14
64 0 78 -1 78 -78 60z"/>
<path d="M3535 961 c-154 -28 -238 -176 -190 -337 32 -109 118 -167 246 -167
88 -1 144 22 199 78 39 40 37 44 -42 78 l-56 25 -19 -20 c-43 -48 -120 -42
-148 12 -19 37 -19 123 0 159 27 53 96 60 145 16 l25 -23 63 29 c34 15 62 32
62 37 0 15 -79 83 -114 97 -42 17 -122 25 -171 16z"/>
<path d="M4374 960 c-50 -7 -140 -45 -151 -63 -3 -5 12 -27 34 -49 39 -38 41
-39 64 -25 37 24 95 31 130 17 36 -15 49 -37 49 -84 l0 -35 -37 22 c-51 30
-153 31 -203 2 -70 -42 -96 -143 -54 -215 42 -72 177 -100 258 -52 35 21 36
21 36 2 0 -18 7 -20 85 -20 l85 0 0 178 c0 188 -10 232 -56 274 -47 42 -147
62 -240 48z m101 -312 c18 -8 25 -19 25 -38 0 -19 -7 -30 -25 -38 -40 -18 -92
-15 -115 8 -24 24 -24 29 -4 58 17 25 75 30 119 10z"/>
<path d="M3910 710 l0 -250 90 0 90 0 0 250 0 250 -90 0 -90 0 0 -250z"/>
<path d="M475 820 c-4 -13 -18 -23 -36 -27 l-30 -6 20 -21 c14 -15 18 -29 14
-45 -5 -21 -4 -23 13 -16 23 10 44 10 65 1 13 -6 16 -2 11 19 -3 16 2 33 13
45 17 19 17 20 1 20 -9 0 -28 11 -41 26 -23 25 -23 25 -30 4z"/>
<path d="M572 636 c-7 -15 -20 -26 -31 -26 -26 0 -34 -15 -16 -30 8 -7 15 -25
15 -41 0 -27 2 -28 25 -17 18 8 32 8 48 1 21 -10 23 -9 19 16 -2 17 2 32 12
40 23 19 20 31 -9 31 -16 0 -29 9 -38 26 l-13 25 -12 -25z"/>
<path d="M371 632 c-6 -12 -23 -25 -37 -28 -23 -6 -24 -8 -9 -23 8 -10 15 -30
15 -45 0 -23 3 -27 18 -21 21 10 42 10 63 1 13 -6 16 -2 11 19 -3 16 2 33 12
44 17 18 16 20 -6 26 -13 4 -30 16 -39 28 l-17 20 -11 -21z"/>
<path d="M117 397 l-88 -52 225 -3 c124 -1 330 -1 458 0 l233 3 -86 53 -87 52
-283 0 -284 0 -88 -53z"/>
<path d="M4550 400 c0 -20 -5 -30 -15 -30 -9 0 -15 -9 -15 -25 0 -15 6 -25 14
-25 10 0 15 -18 18 -60 5 -71 19 -89 77 -97 38 -5 41 -4 41 18 0 16 -8 28 -22
34 -19 8 -23 18 -23 55 0 39 3 45 23 48 34 5 31 52 -3 52 -21 0 -25 5 -25 30
0 28 -3 30 -35 30 -32 0 -35 -2 -35 -30z"/>
<path d="M3120 359 c-56 -22 -79 -101 -44 -154 19 -29 72 -48 110 -39 30 7 64
31 64 45 0 14 -39 20 -60 9 -32 -17 -60 3 -60 45 0 42 28 62 60 45 21 -11 60
-5 60 9 0 32 -86 58 -130 40z"/>
<path d="M3354 361 c-65 -28 -83 -110 -35 -163 25 -28 36 -33 76 -33 40 0 51
5 76 33 39 43 39 90 2 132 -30 33 -82 46 -119 31z m76 -96 c0 -23 -6 -38 -18
-44 -28 -15 -52 5 -52 44 0 39 24 59 52 44 12 -6 18 -21 18 -44z"/>
<path d="M3550 265 l0 -105 35 0 35 0 0 74 c0 62 3 74 18 78 36 10 42 -2 42
-78 l0 -74 35 0 35 0 0 81 c0 44 -4 89 -10 99 -14 26 -56 33 -91 16 -25 -12
-29 -12 -29 0 0 9 -11 14 -35 14 l-35 0 0 -105z"/>
<path d="M3810 265 l0 -105 35 0 35 0 0 74 c0 62 3 74 18 78 36 10 42 -2 42
-78 l0 -74 35 0 35 0 0 81 c0 44 -4 89 -10 99 -14 26 -56 33 -91 16 -25 -12
-29 -12 -29 0 0 9 -11 14 -35 14 l-35 0 0 -105z"/>
<path d="M4120 359 c-39 -15 -60 -49 -60 -97 0 -52 30 -87 82 -97 37 -7 108
16 108 34 0 14 -36 24 -60 16 -23 -7 -60 2 -60 16 0 5 29 9 65 9 l65 0 0 31
c0 43 -16 69 -55 85 -39 16 -50 16 -85 3z m70 -59 c10 -18 8 -20 -30 -20 -38
0 -40 2 -30 20 6 11 19 20 30 20 11 0 24 -9 30 -20z"/>
<path d="M4360 359 c-56 -22 -79 -101 -44 -154 19 -29 72 -48 110 -39 30 7 64
31 64 45 0 14 -39 20 -60 9 -32 -17 -60 3 -60 45 0 42 28 62 60 45 21 -11 60
-5 60 9 0 32 -86 58 -130 40z"/>
</g>
</svg>
